<?xml version="1.0" encoding="utf-8"?>
<!-- Generator: Adobe Illustrator 19.1.0, SVG Export Plug-In . SVG Version: 6.00 Build 0)  -->
<svg version="1.1" id="Layer_1" xmlns="http://www.w3.org/2000/svg" xmlns:xlink="http://www.w3.org/1999/xlink" x="0px" y="0px"
	 viewBox="140 101 1280 800" enable-background="new 140 101 1280 800" xml:space="preserve">
<linearGradient id="SVGID_1_" gradientUnits="userSpaceOnUse" x1="785.2499" y1="499.6627" x2="785.25" y2="884.502" gradientTransform="matrix(1 0 0 -1 0 1004)">
	<stop  offset="0" style="stop-color:#FF9600"/>
	<stop  offset="1" style="stop-color:#FFFFFF"/>
</linearGradient>
<path fill="url(#SVGID_1_)" stroke="#FFFFFF" stroke-width="2" stroke-miterlimit="10" d="M1108,321.2
	c0,70.1-49.1,128.3-114.8,143.9c-0.1,0-0.2-0.8-0.3,0.6l0,0c-10.2,2.9-20.8,2.8-31.7,2.8c-19,0-37.2-3.9-53.9-10.5
	c-0.3-0.1-0.5-0.3-0.8-0.5v-0.1c-0.2-0.1-0.3-0.1-0.5-0.2c-2.1-0.6-4.3,0.1-5.9,1.6c-13.5,12.5-28.8,23.6-45.5,31.9l0,0l-0.1-0.9
	c-25.2,13.2-53.6,20-83.5,20c-15,0-29.5-2.8-43.5-4.3l0,0c-0.2-1.5-0.3-0.7-0.4-0.7c-10.8-4.2-21.2-6.7-31.2-11
	c-0.1,0-0.2-0.3-0.4-0.3c-29.1-12.6-54.5-32.5-73.9-57c-1.6-2.1-4.4-2.9-6.9-2.2c-3.3,0.9-6.6,1.7-10,2.4c0,0,0,0-0.1,0
	c-7.7,1.6-15.7,2.4-23.8,2.4c-65.3,0-118.3-53-118.3-118.3s52.9-118.3,118.3-118.3c10.5,0,20.7,1.3,30.4,3.9
	c2.6,0.7,5.3-0.2,6.8-2.4c34.8-46.7,90.4-76.9,153-76.9c52,0,99.2,20.8,133.6,54.6c1.8,1.7,4.4,2.3,6.7,1.4
	c15.6-5.6,32.5-8.7,50-8.7C1042.3,174.5,1108,240.2,1108,321.2z"/>
<linearGradient id="SVGID_2_" gradientUnits="userSpaceOnUse" x1="358.8089" y1="696.1841" x2="358.8089" y2="185.0975" gradientTransform="matrix(1 0 0 -1 0 1004)">
	<stop  offset="0" style="stop-color:#FFFFFF"/>
	<stop  offset="1" style="stop-color:#000000"/>
</linearGradient>
<path fill="url(#SVGID_2_)" stroke="#FFFFFF" stroke-width="2" stroke-miterlimit="10" d="M548.3,398.6c1.2,2,1.2,4.5,0,6.6
	l-77.7,135.4L317,807.5c-1.2,2-3.3,3.3-5.7,3.3H175c-5.1,0-8.2-5.5-5.7-9.8L319,540.6l149.7-260c2.5-4.4,8.9-4.4,11.4,0L548.3,398.6
	z"/>
<linearGradient id="SVGID_3_" gradientUnits="userSpaceOnUse" x1="727.3205" y1="351.7286" x2="525.9841" y2="150.3922" gradientTransform="matrix(1 0 0 -1 0 1004)">
	<stop  offset="0" style="stop-color:#FFFFFF"/>
	<stop  offset="1" style="stop-color:#000000"/>
</linearGradient>
<path fill="url(#SVGID_3_)" stroke="#FFFFFF" stroke-width="2" stroke-miterlimit="10" d="M773.9,810.8h-287c-5.1,0-8.2-5.5-5.7-9.8
	l149.2-259.3v-0.3l75.6,131l0.1,0.6l73.4,127.9C782.1,805.3,778.9,810.8,773.9,810.8z"/>
<linearGradient id="SVGID_4_" gradientUnits="userSpaceOnUse" x1="834.1049" y1="360.5457" x2="1050.0453" y2="144.6053" gradientTransform="matrix(1 0 0 -1 0 1004)">
	<stop  offset="0" style="stop-color:#FFFFFF"/>
	<stop  offset="1" style="stop-color:#000000"/>
</linearGradient>
<path fill="url(#SVGID_4_)" stroke="#FFFFFF" stroke-width="2" stroke-miterlimit="10" d="M1085.7,810.8h-287
	c-5.1,0-8.2-5.5-5.7-9.8l69-120.4l74.3-128.7c2.5-4.4,8.9-4.4,11.4,0l143.7,249C1093.9,805.3,1090.7,810.8,1085.7,810.8z"/>
<linearGradient id="SVGID_5_" gradientUnits="userSpaceOnUse" x1="1211.0627" y1="714.4608" x2="1211.0627" y2="185.4852" gradientTransform="matrix(1 0 0 -1 0 1004)">
	<stop  offset="0" style="stop-color:#FFFFFF"/>
	<stop  offset="1" style="stop-color:#000000"/>
</linearGradient>
<path fill="url(#SVGID_5_)" stroke="#FFFFFF" stroke-width="2" stroke-miterlimit="10" d="M1397.6,810.8h-145.2
	c-2.4,0-4.5-1.3-5.7-3.3l-153.4-266.9l-75.2-130.8l-0.1-0.2l74.4-129.2c2.5-4.4,8.9-4.4,11.4,0l149.7,260.2l149.7,260.3
	C1405.8,805.3,1402.6,810.8,1397.6,810.8z"/>
<linearGradient id="SVGID_6_" gradientUnits="userSpaceOnUse" x1="706.0775" y1="192.2117" x2="706.0775" y2="342.7162" gradientTransform="matrix(1 0 0 -1 0 1004)">
	<stop  offset="0" style="stop-color:#FFFFFF"/>
	<stop  offset="1" style="stop-color:#000000"/>
</linearGradient>
<path fill="url(#SVGID_6_)" stroke="#FFFFFF" stroke-width="2" stroke-miterlimit="10" d="M773.8,810.8H638.3c-5,0-8.2-5.5-5.7-9.8
	l73.3-128l0.1-0.4l0.1,0.6L779.5,801C782.1,805.3,778.9,810.8,773.8,810.8z"/>
<linearGradient id="SVGID_7_" gradientUnits="userSpaceOnUse" x1="781.9151" y1="697.8" x2="781.9151" y2="192.7205" gradientTransform="matrix(1 0 0 -1 0 1004)">
	<stop  offset="0" style="stop-color:#FFFFFF"/>
	<stop  offset="5.288738e-02" style="stop-color:#F6FBFD"/>
	<stop  offset="0.1409" style="stop-color:#DCF0F9"/>
	<stop  offset="0.2532" style="stop-color:#B3DDF1"/>
	<stop  offset="0.3853" style="stop-color:#79C4E7"/>
	<stop  offset="0.5326" style="stop-color:#30A4DA"/>
	<stop  offset="0.5674" style="stop-color:#1E9CD7"/>
	<stop  offset="0.8652" style="stop-color:#0075BE"/>
	<stop  offset="0.9944" style="stop-color:#005B97"/>
</linearGradient>
<path fill="url(#SVGID_7_)" stroke="#FFFFFF" stroke-width="2" stroke-miterlimit="10" d="M1237.2,810.8h-136.3
	c-2.3,0-4.5-1.3-5.7-3.3L947.7,551.7c-2.5-4.4-8.9-4.4-11.4,0L862,680.9l-74.2,129c-0.3,0.6-0.9,0.9-1.6,0.9l0,0
	c-0.7,0-1.3-0.4-1.6-0.9L706.1,673l-0.1-0.5c-76.3,45.8-152.7,91.9-229,137.3c-1,0.6-2.2,0.9-3.4,0.9H326.5c-5.1,0-8.2-5.5-5.7-9.8
	l149.7-260.3l79.6-138.4l46.8-81.3l0.1-0.2l23.3-40.4c2.5-4.4,8.9-4.4,11.4,0l55.5,96.3l0.4,0.6l18.6,32.2v0.1L781.3,540l0.4,0.9
	l0.7-0.9L862,401.9v-0.1v0.1l0.5-0.1l34.8-60.1l-0.2-0.4l0,0l35.1-61c2.5-4.4,8.9-4.4,11.4,0l39.2,68.1l0.2,0.1l35.1,60.9l0.1,0.1
	l75.2,131.1l149.7,260.3C1245.5,805.3,1242.3,810.8,1237.2,810.8z"/>
<linearGradient id="SVGID_8_" gradientUnits="userSpaceOnUse" x1="942.1934" y1="191.2867" x2="942.1934" y2="476.7035" gradientTransform="matrix(1 0 0 -1 0 1004)">
	<stop  offset="0" style="stop-color:#FFFFFF"/>
	<stop  offset="1" style="stop-color:#000000"/>
</linearGradient>
<path fill="url(#SVGID_8_)" stroke="#FFFFFF" stroke-width="2" stroke-miterlimit="10" d="M1085.7,810.8h-287
	c-5.1,0-8.2-5.5-5.7-9.8l69-120.4l74.3-128.7c2.5-4.4,8.9-4.4,11.4,0l143.7,249C1093.9,805.3,1090.7,810.8,1085.7,810.8z"/>
<linearGradient id="SVGID_9_" gradientUnits="userSpaceOnUse" x1="684.7744" y1="402.5743" x2="659.8317" y2="377.6318" gradientTransform="matrix(1 0 0 -1 0 1004)">
	<stop  offset="0" style="stop-color:#FFFFFF"/>
	<stop  offset="1" style="stop-color:#000000"/>
</linearGradient>
<polygon fill="url(#SVGID_9_)" stroke="#FFFFFF" stroke-width="2" stroke-miterlimit="10" points="706,672.3 705.9,672.5 
	638.6,555.4 638.7,555.3 "/>
<linearGradient id="SVGID_10_" gradientUnits="userSpaceOnUse" x1="757.4866" y1="543.1367" x2="729.7158" y2="515.3659" gradientTransform="matrix(1 0 0 -1 0 1004)">
	<stop  offset="0" style="stop-color:#FFFFFF"/>
	<stop  offset="1" style="stop-color:#000000"/>
</linearGradient>
<polygon fill="url(#SVGID_10_)" stroke="#FFFFFF" stroke-width="2" stroke-miterlimit="10" points="781.1,540.1 706,409.5 
	706.1,409.4 706.1,409.5 "/>
<linearGradient id="SVGID_11_" gradientUnits="userSpaceOnUse" x1="630.3716" y1="173.67" x2="630.3716" y2="457.5863" gradientTransform="matrix(1 0 0 -1 0 1004)">
	<stop  offset="0" style="stop-color:#FFFFFF"/>
	<stop  offset="1" style="stop-color:#000000"/>
</linearGradient>
<path fill="url(#SVGID_11_)" stroke="#FFFFFF" stroke-width="2" stroke-miterlimit="10" d="M773.9,810.8h-287
	c-5.1,0-8.2-5.3-5.7-9.5l149.2-250V551L706,677.4l0.1,0.6l73.4,123.3C782.1,805.5,778.9,810.8,773.9,810.8z"/>
<linearGradient id="SVGID_12_" gradientUnits="userSpaceOnUse" x1="862.0434" y1="183.9735" x2="862.0434" y2="318.4364" gradientTransform="matrix(1 0 0 -1 0 1004)">
	<stop  offset="0" style="stop-color:#FFFFFF"/>
	<stop  offset="1" style="stop-color:#000000"/>
</linearGradient>
<path fill="url(#SVGID_12_)" stroke="#FFFFFF" stroke-width="2" stroke-miterlimit="10" d="M925.4,810.8H798.7
	c-5.1,0-8.2-5.5-5.7-9.9L856.4,691c2.5-4.4,8.9-4.4,11.4,0l63.3,109.9C933.6,805.3,930.4,810.8,925.4,810.8z"/>
<linearGradient id="SVGID_13_" gradientUnits="userSpaceOnUse" x1="630.3934" y1="437.8" x2="630.3934" y2="195.9958" gradientTransform="matrix(1 0 0 -1 0 1004)">
	<stop  offset="0" style="stop-color:#FFFFFF"/>
	<stop  offset="1" style="stop-color:#000000"/>
</linearGradient>
<path fill="url(#SVGID_13_)" stroke="#FFFFFF" stroke-width="2" stroke-miterlimit="10" d="M773.9,810.8h-287
	c-5.1,0-8.2-5.5-5.7-9.8c47.8-83.3,95.7-166.5,143.5-249.8c2.5-4.4,8.9-4.4,11.4,0c47.8,83.3,95.7,166.5,143.5,249.8
	C782.1,805.3,778.9,810.8,773.9,810.8z"/>
<linearGradient id="SVGID_14_" gradientUnits="userSpaceOnUse" x1="784" y1="682.6" x2="784" y2="471.3696" gradientTransform="matrix(1 0 0 -1 0 1004)">
	<stop  offset="0" style="stop-color:#FFFFFF"/>
	<stop  offset="1" style="stop-color:#000000"/>
</linearGradient>
<path fill="url(#SVGID_14_)" stroke="#FFFFFF" stroke-width="2" stroke-miterlimit="10" d="M862,401.8L862,401.8l-79.6,138
	c-0.1,0.2-0.2,0.4-0.3,0.5l-0.5,0.7l-0.4-0.9L706,409.5v-0.1l12.5-21.6l0.4-0.8l57.4-99.5c4.4-7.6,15.4-7.6,19.8,0l49.1,85.2
	l0.1,0.2L862,401.8z"/>
<linearGradient id="SVGID_15_" gradientUnits="userSpaceOnUse" x1="942.1934" y1="431.4" x2="942.1934" y2="196.2" gradientTransform="matrix(1 0 0 -1 0 1004)">
	<stop  offset="0" style="stop-color:#FFFFFF"/>
	<stop  offset="1" style="stop-color:#000000"/>
</linearGradient>
<path fill="url(#SVGID_15_)" stroke="#FFFFFF" stroke-width="2" stroke-miterlimit="10" d="M1085.7,810.8h-287
	c-5.1,0-8.2-5.5-5.7-9.8l69-120.4l74.3-128.7c2.5-4.4,8.9-4.4,11.4,0l143.7,249C1093.9,805.3,1090.7,810.8,1085.7,810.8z"/>
<linearGradient id="SVGID_16_" gradientUnits="userSpaceOnUse" x1="623.8" y1="469.3" x2="623.8" y2="469.3" gradientTransform="matrix(1 0 0 -1 0 1004)">
	<stop  offset="0" style="stop-color:#FFFFFF"/>
	<stop  offset="1" style="stop-color:#000000"/>
</linearGradient>
<path fill="url(#SVGID_16_)" stroke="#FFFFFF" stroke-width="2" stroke-miterlimit="10" d="M623.8,534.7"/>
</svg>
