<?xml version="1.0" encoding="utf-8"?>
<!-- Generator: Adobe Illustrator 18.1.1, SVG Export Plug-In . SVG Version: 6.00 Build 0)  -->
<svg version="1.1" id="Layer_1" xmlns="http://www.w3.org/2000/svg" xmlns:xlink="http://www.w3.org/1999/xlink" x="0px" y="0px"
	 viewBox="0 0 1280 800" enable-background="new 0 0 1280 800" xml:space="preserve">
<linearGradient id="SVGID_1_" gradientUnits="userSpaceOnUse" x1="645.2657" y1="403.3373" x2="645.2657" y2="18.498">
	<stop  offset="0" style="stop-color:#FF9600"/>
	<stop  offset="1" style="stop-color:#FFFFFF"/>
</linearGradient>
<path fill="url(#SVGID_1_)" stroke="#FFFFFF" stroke-width="2" stroke-miterlimit="10" d="M968,220.2c0,70.1-49.1,128.3-114.8,143.9
	c-0.1,0-0.2-0.8-0.3,0.6h0c-10.2,2.9-20.8,2.8-31.7,2.8c-19,0-37.2-3.9-53.9-10.5c-0.3-0.1-0.5-0.3-0.8-0.5c0,0,0-0.1,0-0.1
	c-0.2-0.1-0.3-0.1-0.5-0.2c-2.1-0.6-4.3,0.1-5.9,1.6c-13.5,12.5-28.8,23.6-45.5,31.9h0c0,0-0.1-0.9-0.1-0.9
	c-25.2,13.2-53.6,20-83.5,20c-15,0-29.5-2.8-43.5-4.3c0,0,0,0,0,0c-0.2-1.5-0.3-0.7-0.4-0.7c-10.8-4.2-21.2-6.7-31.2-11
	c-0.1,0-0.2-0.3-0.4-0.3c-29.1-12.6-54.5-32.5-73.9-57c-1.6-2.1-4.4-2.9-6.9-2.2c-3.3,0.9-6.6,1.7-10,2.4c0,0,0,0-0.1,0
	c-7.7,1.6-15.7,2.4-23.8,2.4c-65.3,0-118.3-53-118.3-118.3c0-65.3,52.9-118.3,118.3-118.3c10.5,0,20.7,1.3,30.4,3.9
	c2.6,0.7,5.3-0.2,6.8-2.4c34.8-46.7,90.4-76.9,153-76.9c52,0,99.2,20.8,133.6,54.6c1.8,1.7,4.4,2.3,6.7,1.4
	c15.6-5.6,32.5-8.7,50-8.7C902.3,73.5,968,139.2,968,220.2z"/>
<linearGradient id="SVGID_2_" gradientUnits="userSpaceOnUse" x1="218.7827" y1="206.8159" x2="218.7827" y2="717.9025">
	<stop  offset="0" style="stop-color:#FFFFFF"/>
	<stop  offset="1" style="stop-color:#000000"/>
</linearGradient>
<path fill="url(#SVGID_2_)" stroke="#FFFFFF" stroke-width="2" stroke-miterlimit="10" d="M408.3,297.6c1.2,2,1.2,4.5,0,6.6
	l-77.7,135.4L177,706.5c-1.2,2-3.3,3.3-5.7,3.3H35c-5.1,0-8.2-5.5-5.7-9.8L179,439.6l149.7-260c2.5-4.4,8.9-4.4,11.4,0L408.3,297.6z
	"/>
<linearGradient id="SVGID_3_" gradientUnits="userSpaceOnUse" x1="587.2591" y1="551.21" x2="385.9227" y2="752.5464">
	<stop  offset="0" style="stop-color:#FFFFFF"/>
	<stop  offset="1" style="stop-color:#000000"/>
</linearGradient>
<path fill="url(#SVGID_3_)" stroke="#FFFFFF" stroke-width="2" stroke-miterlimit="10" d="M633.9,709.8h-287c-5.1,0-8.2-5.5-5.7-9.8
	l149.2-259.3l0-0.3L566,571.4l0.1,0.6l73.4,127.9C642.1,704.3,638.9,709.8,633.9,709.8z"/>
<linearGradient id="SVGID_4_" gradientUnits="userSpaceOnUse" x1="694.0992" y1="542.4599" x2="910.0396" y2="758.4003">
	<stop  offset="0" style="stop-color:#FFFFFF"/>
	<stop  offset="1" style="stop-color:#000000"/>
</linearGradient>
<path fill="url(#SVGID_4_)" stroke="#FFFFFF" stroke-width="2" stroke-miterlimit="10" d="M945.7,709.8h-287c-5.1,0-8.2-5.5-5.7-9.8
	L722,579.6l74.3-128.7c2.5-4.4,8.9-4.4,11.4,0l143.7,249C953.9,704.3,950.7,709.8,945.7,709.8z"/>
<linearGradient id="SVGID_5_" gradientUnits="userSpaceOnUse" x1="1071.0892" y1="188.5392" x2="1071.0892" y2="717.5148">
	<stop  offset="0" style="stop-color:#FFFFFF"/>
	<stop  offset="1" style="stop-color:#000000"/>
</linearGradient>
<path fill="url(#SVGID_5_)" stroke="#FFFFFF" stroke-width="2" stroke-miterlimit="10" d="M1257.6,709.8h-145.2
	c-2.4,0-4.5-1.3-5.7-3.3L953.3,439.6l-75.2-130.8l-0.1-0.2l74.4-129.2c2.5-4.4,8.9-4.4,11.4,0l149.7,260.2l149.7,260.3
	C1265.8,704.3,1262.6,709.8,1257.6,709.8z"/>
<linearGradient id="SVGID_6_" gradientUnits="userSpaceOnUse" x1="566.0953" y1="710.7883" x2="566.0953" y2="560.2838">
	<stop  offset="0" style="stop-color:#FFFFFF"/>
	<stop  offset="1" style="stop-color:#000000"/>
</linearGradient>
<path fill="url(#SVGID_6_)" stroke="#FFFFFF" stroke-width="2" stroke-miterlimit="10" d="M633.8,709.8H498.3c-5,0-8.2-5.5-5.7-9.8
	L565.9,572l0.1-0.4l0.1,0.6l73.4,127.8C642.1,704.3,638.9,709.8,633.8,709.8z"/>
<linearGradient id="SVGID_7_" gradientUnits="userSpaceOnUse" x1="641.8737" y1="205.2" x2="641.8737" y2="710.2795">
	<stop  offset="0" style="stop-color:#FFFFFF"/>
	<stop  offset="5.288738e-02" style="stop-color:#F6FBFD"/>
	<stop  offset="0.1409" style="stop-color:#DCF0F9"/>
	<stop  offset="0.2532" style="stop-color:#B3DDF1"/>
	<stop  offset="0.3853" style="stop-color:#79C4E7"/>
	<stop  offset="0.5326" style="stop-color:#30A4DA"/>
	<stop  offset="0.5674" style="stop-color:#1E9CD7"/>
	<stop  offset="0.8652" style="stop-color:#0075BE"/>
	<stop  offset="0.9944" style="stop-color:#005B97"/>
</linearGradient>
<path fill="url(#SVGID_7_)" stroke="#FFFFFF" stroke-width="2" stroke-miterlimit="10" d="M1097.2,709.8H960.9
	c-2.3,0-4.5-1.3-5.7-3.3L807.7,450.7c-2.5-4.4-8.9-4.4-11.4,0L722,579.9l-74.2,129c-0.3,0.6-0.9,0.9-1.6,0.9h0
	c-0.7,0-1.3-0.4-1.6-0.9L566.1,572l-0.1-0.5c-76.3,45.8-152.7,91.9-229,137.3c-1,0.6-2.2,0.9-3.4,0.9H186.5c-5.1,0-8.2-5.5-5.7-9.8
	l149.7-260.3l79.6-138.4l46.8-81.3l0.1-0.2l23.3-40.4c2.5-4.4,8.9-4.4,11.4,0l55.5,96.3l0.4,0.6l18.6,32.2l0,0.1l75.1,130.5l0.4,0.9
	l0.7-0.9L722,300.9l0-0.1l0,0.1l0.5-0.1l34.8-60.1l-0.2-0.4v0l35.1-61c2.5-4.4,8.9-4.4,11.4,0l39.2,68.1l0.2,0.1l35.1,60.9l0.1,0.1
	l75.2,131.1l149.7,260.3C1105.5,704.3,1102.3,709.8,1097.2,709.8z"/>
<linearGradient id="SVGID_8_" gradientUnits="userSpaceOnUse" x1="802.1795" y1="711.7133" x2="802.1795" y2="426.2965">
	<stop  offset="0" style="stop-color:#FFFFFF"/>
	<stop  offset="1" style="stop-color:#000000"/>
</linearGradient>
<path fill="url(#SVGID_8_)" stroke="#FFFFFF" stroke-width="2" stroke-miterlimit="10" d="M945.7,709.8h-287c-5.1,0-8.2-5.5-5.7-9.8
	L722,579.6l74.3-128.7c2.5-4.4,8.9-4.4,11.4,0l143.7,249C953.9,704.3,950.7,709.8,945.7,709.8z"/>
<linearGradient id="SVGID_9_" gradientUnits="userSpaceOnUse" x1="544.7669" y1="500.4182" x2="519.8243" y2="525.3607">
	<stop  offset="0" style="stop-color:#FFFFFF"/>
	<stop  offset="1" style="stop-color:#000000"/>
</linearGradient>
<polygon fill="url(#SVGID_9_)" stroke="#FFFFFF" stroke-width="2" stroke-miterlimit="10" points="566,571.3 565.9,571.5 
	498.6,454.4 498.7,454.3 "/>
<linearGradient id="SVGID_10_" gradientUnits="userSpaceOnUse" x1="617.4896" y1="359.8663" x2="589.7188" y2="387.6371">
	<stop  offset="0" style="stop-color:#FFFFFF"/>
	<stop  offset="1" style="stop-color:#000000"/>
</linearGradient>
<polygon fill="url(#SVGID_10_)" stroke="#FFFFFF" stroke-width="2" stroke-miterlimit="10" points="641.1,439.1 566,308.5 
	566.1,308.4 566.1,308.5 "/>
<linearGradient id="SVGID_11_" gradientUnits="userSpaceOnUse" x1="490.3403" y1="729.33" x2="490.3403" y2="445.4137">
	<stop  offset="0" style="stop-color:#FFFFFF"/>
	<stop  offset="1" style="stop-color:#000000"/>
</linearGradient>
<path fill="url(#SVGID_11_)" stroke="#FFFFFF" stroke-width="2" stroke-miterlimit="10" d="M633.9,709.8h-287
	c-5.1,0-8.2-5.3-5.7-9.5l149.2-250l0-0.3L566,576.4l0.1,0.6l73.4,123.3C642.1,704.5,638.9,709.8,633.9,709.8z"/>
<linearGradient id="SVGID_12_" gradientUnits="userSpaceOnUse" x1="722.0345" y1="719.0265" x2="722.0345" y2="584.5636">
	<stop  offset="0" style="stop-color:#FFFFFF"/>
	<stop  offset="1" style="stop-color:#000000"/>
</linearGradient>
<path fill="url(#SVGID_12_)" stroke="#FFFFFF" stroke-width="2" stroke-miterlimit="10" d="M785.4,709.8H658.7
	c-5.1,0-8.2-5.5-5.7-9.9L716.4,590c2.5-4.4,8.9-4.4,11.4,0l63.3,109.9C793.6,704.3,790.4,709.8,785.4,709.8z"/>
<linearGradient id="SVGID_13_" gradientUnits="userSpaceOnUse" x1="490.3361" y1="465.2" x2="490.3361" y2="707.0042">
	<stop  offset="0" style="stop-color:#FFFFFF"/>
	<stop  offset="1" style="stop-color:#000000"/>
</linearGradient>
<path fill="url(#SVGID_13_)" stroke="#FFFFFF" stroke-width="2" stroke-miterlimit="10" d="M633.9,709.8h-287
	c-5.1,0-8.2-5.5-5.7-9.8c47.8-83.3,95.7-166.5,143.5-249.8c2.5-4.4,8.9-4.4,11.4,0c47.8,83.3,95.7,166.5,143.5,249.8
	C642.1,704.3,638.9,709.8,633.9,709.8z"/>
<linearGradient id="SVGID_14_" gradientUnits="userSpaceOnUse" x1="644.014" y1="220.4" x2="644.014" y2="431.6304">
	<stop  offset="0" style="stop-color:#FFFFFF"/>
	<stop  offset="1" style="stop-color:#000000"/>
</linearGradient>
<path fill="url(#SVGID_14_)" stroke="#FFFFFF" stroke-width="2" stroke-miterlimit="10" d="M722,300.8L722,300.8l-79.6,138
	c-0.1,0.2-0.2,0.4-0.3,0.5l-0.5,0.7l-0.4-0.9L566,308.5l0-0.1l12.5-21.6l0.4-0.8l57.4-99.5c4.4-7.6,15.4-7.6,19.8,0l49.1,85.2
	l0.1,0.2L722,300.8z"/>
<linearGradient id="SVGID_15_" gradientUnits="userSpaceOnUse" x1="802.1795" y1="471.6" x2="802.1795" y2="706.8">
	<stop  offset="0" style="stop-color:#FFFFFF"/>
	<stop  offset="1" style="stop-color:#000000"/>
</linearGradient>
<path fill="url(#SVGID_15_)" stroke="#FFFFFF" stroke-width="2" stroke-miterlimit="10" d="M945.7,709.8h-287
	c-5.1,0-8.2-5.5-5.7-9.8L722,579.6l74.3-128.7c2.5-4.4,8.9-4.4,11.4,0l143.7,249C953.9,704.3,950.7,709.8,945.7,709.8z"/>
<linearGradient id="SVGID_16_" gradientUnits="userSpaceOnUse" x1="483.8308" y1="433.7214" x2="483.8308" y2="433.7214">
	<stop  offset="0" style="stop-color:#FFFFFF"/>
	<stop  offset="1" style="stop-color:#000000"/>
</linearGradient>
<path fill="url(#SVGID_16_)" stroke="#FFFFFF" stroke-width="2" stroke-miterlimit="10" d="M483.8,433.7"/>
</svg>
